<?xml version="1.0" encoding="utf8"?>

<!--
	https://www.deviantart.com/maxigamer/art/FONT-New-Fontendo-23DSi-Lite-XL-DOWNLOAD-ZIP-552834059
	https://danmarshall.github.io/google-font-to-svg-path/
-->
<svg xmlns="http://www.w3.org/2000/svg" viewBox="-1,-1 568,118">
	<g stroke="none" fill-rule="evenodd">
		<path fill="#221E1F" d="
			M 91.34 0.002 L 53.24 0.002 C 47.74 0.002 43.24 4.502 43.24 10.002 L 43.24 37.202 C 43.24 42.702 47.74 47.202 53.24 47.202 L 91.34 47.202 C 96.84 47.202 101.34 42.702 101.34 37.202 L 101.34 10.002 C 101.34 4.502 96.84 0.002 91.34 0.002 Z M 91.04 39.102 L 53.64 39.102 C 52.54 39.102 51.64 38.202 51.64 37.102 L 51.64 10.102 C 51.64 9.002 52.54 8.102 53.64 8.102 L 91.04 8.102 C 92.04 8.102 92.94 9.002 92.94 10.102 L 92.94 37.102 A 2.043 2.043 0 0 1 92.165 38.696 A 1.819 1.819 0 0 1 91.04 39.102 Z

			M 171.34 0.002 L 111.34 0.002 L 111.34 100.002 L 171.34 100.002 C 187.14 100.002 205.04 97.302 214.54 93.002 A 66.505 66.505 0 0 0 227.168 85.633 C 238.817 76.867 243.873 65.897 244.993 54.927 A 48.479 48.479 0 0 0 245.24 50.002 A 47.66 47.66 0 0 0 244.873 44.049 C 243.515 33.266 238.244 22.484 226.506 13.941 A 66.437 66.437 0 0 0 214.54 7.102 A 53.426 53.426 0 0 0 207.031 4.459 C 197.146 1.69 183.61 0.002 171.34 0.002 Z M 163.04 86.202 L 143.84 86.202 L 143.84 13.502 L 163.04 13.502 C 191.839 13.502 210.249 25.795 211.109 48.336 A 43.716 43.716 0 0 1 211.14 50.002 A 33.713 33.713 0 0 1 205.958 68.807 C 199.405 78.835 186.932 84.663 170.241 85.936 A 94.744 94.744 0 0 1 163.04 86.202 Z

			M 250.24 80.202 L 250.24 96.902 C 261.725 98.725 272.212 99.8 286.473 99.976 A 345.54 345.54 0 0 0 290.74 100.002 A 166.93 166.93 0 0 0 309.308 99.048 C 336.447 95.998 348.657 85.9 348.74 72.702 A 20.981 20.981 0 0 0 339.136 55.076 C 332.537 50.125 322.665 46.028 309.921 41.453 A 554.852 554.852 0 0 0 308.94 41.102 A 1855.148 1855.148 0 0 1 303.305 39.075 C 292.582 35.189 285.28 32.235 282.04 28.346 A 7.634 7.634 0 0 1 280.14 23.302 C 280.14 18.634 285.538 14.048 298.214 13.157 A 66.082 66.082 0 0 1 302.84 13.002 C 314.99 13.002 323.615 15.395 332.241 17.363 A 145.751 145.751 0 0 0 338.14 18.602 L 338.04 3.202 C 327.804 1.341 321.984 0.172 307.205 0.019 A 334.186 334.186 0 0 0 303.74 0.002 C 271.44 0.002 250.34 9.702 250.34 26.002 C 250.34 40.295 264.927 47.377 285.574 55.247 A 876.627 876.627 0 0 0 291.84 57.602 A 298.959 298.959 0 0 1 296.761 59.423 C 309.32 64.21 314.73 67.553 315.826 72.183 A 8.294 8.294 0 0 1 316.04 74.102 A 9.801 9.801 0 0 1 311.807 82.208 C 308.189 84.91 302.126 86.602 293.14 86.602 A 144.542 144.542 0 0 1 283.825 86.282 C 273.363 85.601 262.351 83.891 254.75 81.713 A 47.591 47.591 0 0 1 250.24 80.202 Z

			M 388.788 0.005 L 353.77 0.005 L 353.77 47.184 L 388.788 47.184 A 19.457 19.457 0 0 0 396.369 45.734 A 16.937 16.937 0 0 0 403.334 40.308 C 406.359 36.357 408.02 30.996 408.211 24.786 A 39.603 39.603 0 0 0 408.229 23.574 C 408.229 16.849 406.554 11.082 403.334 6.918 A 17.294 17.294 0 0 0 390.196 0.049 A 22.323 22.323 0 0 0 388.788 0.005 Z M 389.032 39.048 L 362.186 39.048 L 362.186 8.1 L 389.032 8.1 C 397.406 8.1 400.394 16.47 400.394 23.574 A 25.251 25.251 0 0 1 400.234 26.418 C 399.516 32.733 396.306 39.048 389.032 39.048 Z

			M 456.24 0.002 L 428.14 0.002 C 422.64 0.002 418.14 4.502 418.14 10.002 L 418.14 47.202 L 426.54 47.202 L 426.54 27.702 L 457.84 27.702 L 457.84 47.202 L 466.24 47.202 L 466.24 10.002 C 466.24 4.502 461.74 0.002 456.24 0.002 Z M 457.84 19.402 L 426.54 19.402 L 426.54 14.702 A 6.53 6.53 0 0 1 430.89 8.758 A 8.015 8.015 0 0 1 433.84 8.202 L 450.54 8.202 A 7.819 7.819 0 0 1 455.305 9.783 A 6.214 6.214 0 0 1 457.84 14.702 L 457.84 19.402 Z

			M 504.07 25.253 L 522.909 6.185 L 522.909 0.002 L 516.708 0.01 L 499.791 17.171 L 482.474 0.01 L 476.273 0.002 L 476.273 6.185 L 495.338 25.035 L 495.338 47.131 L 504.07 47.131 L 504.07 25.253 Z
		" />

		<path fill="#6D6E70" d="
			M 11.24 75.702 L 7.64 77.202 A 6.644 6.644 0 0 0 7.631 77.207 C 7.384 77.33 7.175 77.454 6.981 77.554 A 2.467 2.467 0 0 1 6.64 77.702 A 2.295 2.295 0 0 0 6.306 77.952 C 5.9 78.323 5.812 78.744 5.938 79.212 A 2.182 2.182 0 0 0 6.04 79.502 C 6.54 80.502 7.14 81.502 7.54 82.502 A 51.101 51.101 0 0 0 11.235 89.201 A 416.42 416.42 0 0 1 12.04 90.502 A 39.611 39.611 0 0 0 13.003 91.864 A 88.68 88.68 0 0 1 14.04 93.302 A 3.171 3.171 0 0 0 14.254 93.583 C 14.301 93.639 14.351 93.696 14.403 93.752 A 14.65 14.65 0 0 0 14.84 94.202 A 0.608 0.608 0 0 0 15.2 94.369 C 15.508 94.409 15.898 94.276 16.24 94.002 A 55.615 55.615 0 0 0 18.364 92.427 A 255.214 255.214 0 0 0 19.04 91.902 C 21.54 90.002 23.94 88.102 26.34 86.302 C 28.44 84.702 30.44 83.202 32.54 81.602 A 0.793 0.793 0 0 0 32.783 81.398 C 32.86 81.309 32.935 81.208 33.036 81.106 A 1.704 1.704 0 0 1 33.04 81.102 C 33.214 80.842 33.312 80.506 33.205 80.161 A 1.058 1.058 0 0 0 33.14 80.002 C 32.94 79.702 32.74 79.402 32.54 79.002 C 30.64 76.402 29.04 73.602 27.64 70.702 A 10.785 10.785 0 0 0 27.523 70.438 C 27.035 69.378 26.7 69.256 25.62 69.686 A 11.711 11.711 0 0 0 25.34 69.802 C 20.64 71.802 15.94 73.702 11.24 75.702 Z
			M 23.54 55.602 L 23.54 54.502 A 88.62 88.62 0 0 1 23.351 49.145 A 46.442 46.442 0 0 1 23.54 44.802 A 7.002 7.002 0 0 0 23.572 44.547 C 23.695 43.388 23.359 43.101 22.025 42.913 A 12.338 12.338 0 0 0 21.94 42.902 C 16.94 42.302 11.84 41.602 6.84 41.002 A 104.728 104.728 0 0 0 4.89 40.714 A 34.411 34.411 0 0 0 2.94 40.502 C 2.54 40.402 2.14 40.402 1.74 40.402 A 1.507 1.507 0 0 0 1.142 40.516 C 0.782 40.671 0.544 40.977 0.467 41.395 A 1.7 1.7 0 0 0 0.44 41.702 C 0.34 42.802 0.34 43.902 0.24 45.002 A 31.199 31.199 0 0 0 0.001 49.123 A 52.374 52.374 0 0 0 0.003 49.552 C 0.012 50.641 0.053 51.73 0.093 52.811 A 291.006 291.006 0 0 1 0.14 54.102 A 15.605 15.605 0 0 0 0.253 55.839 C 0.315 56.402 0.39 56.952 0.44 57.502 C 0.44 58.002 0.54 58.402 0.74 58.802 A 0.32 0.32 0 0 0 0.845 59.02 C 1.046 59.227 1.515 59.377 2.04 59.302 C 3.14 59.202 4.34 59.002 5.44 58.902 C 8.54 58.502 11.64 58.102 14.64 57.702 A 120.839 120.839 0 0 1 18.44 57.164 A 520.304 520.304 0 0 1 22.24 56.702 C 22.54 56.702 22.74 56.602 22.94 56.502 C 23.33 56.404 23.53 56.117 23.54 55.639 A 1.819 1.819 0 0 0 23.54 55.602 Z
			M 16.94 6.502 L 16.04 5.902 C 15.376 5.57 14.849 5.651 14.461 6.09 A 1.861 1.861 0 0 0 14.24 6.402 A 44.591 44.591 0 0 1 12.349 9.091 A 25.685 25.685 0 0 1 12.34 9.102 C 10.54 11.602 9.14 14.302 7.74 17.002 C 7.24 18.002 6.74 19.002 6.24 20.102 L 5.94 21.302 A 0.527 0.527 0 0 0 5.925 21.43 C 5.925 21.611 6.012 21.804 6.153 21.974 A 1.501 1.501 0 0 0 6.74 22.402 C 7.84 22.902 8.94 23.302 10.04 23.802 A 275.101 275.101 0 0 1 14.29 25.514 A 334.011 334.011 0 0 1 18.54 27.302 C 20.94 28.302 23.24 29.302 25.64 30.302 C 25.84 30.402 26.04 30.402 26.34 30.502 A 1.413 1.413 0 0 0 26.714 30.459 C 26.933 30.399 27.108 30.266 27.24 30.002 C 27.415 29.739 27.59 29.4 27.765 29.119 A 4.346 4.346 0 0 1 27.84 29.002 C 29.24 26.102 30.84 23.302 32.64 20.602 C 33.472 19.493 33.45 19.152 32.494 18.396 A 12.559 12.559 0 0 0 32.24 18.202 A 952.144 952.144 0 0 0 28.214 15.102 C 25.518 13.035 22.807 10.969 20.14 8.902 C 19.04 8.102 18.04 7.302 16.94 6.502 Z

			M 551.24 94.202 L 552.14 93.302 A 104.73 104.73 0 0 0 553.128 91.864 A 261.315 261.315 0 0 0 554.04 90.502 A 416.42 416.42 0 0 1 554.846 89.201 A 51.101 51.101 0 0 0 558.54 82.502 L 560.04 79.502 C 560.44 78.802 560.24 78.202 559.54 77.702 C 559.14 77.602 558.84 77.402 558.54 77.202 C 557.34 76.702 556.14 76.202 554.84 75.702 A 506.253 506.253 0 0 0 547.878 72.752 A 1065.062 1065.062 0 0 1 540.84 69.802 A 9.437 9.437 0 0 0 540.477 69.654 C 539.365 69.231 538.985 69.431 538.44 70.702 C 537.14 73.602 535.44 76.402 533.64 79.002 C 533.49 79.302 533.34 79.546 533.19 79.775 A 28.533 28.533 0 0 1 533.04 80.002 C 532.856 80.371 532.842 80.74 533.076 81.03 A 0.904 0.904 0 0 0 533.14 81.102 A 1.146 1.146 0 0 0 533.361 81.398 A 1.133 1.133 0 0 0 533.64 81.602 C 535.64 83.202 537.74 84.702 539.74 86.302 C 542.24 88.102 544.64 90.002 547.04 91.902 A 55.615 55.615 0 0 1 549.164 93.477 A 255.214 255.214 0 0 1 549.84 94.002 C 550.311 94.378 550.959 94.489 551.2 94.25 A 0.311 0.311 0 0 0 551.24 94.202 Z
			M 542.54 54.502 L 542.54 55.602 A 1.407 1.407 0 0 0 542.576 55.93 C 542.646 56.225 542.824 56.413 543.109 56.494 A 1.023 1.023 0 0 0 543.14 56.502 A 4.749 4.749 0 0 1 543.147 56.504 C 543.443 56.603 543.642 56.702 543.84 56.702 C 546.44 57.002 548.94 57.302 551.44 57.702 C 554.54 58.102 557.64 58.502 560.64 58.902 C 561.84 59.002 562.94 59.202 564.14 59.302 C 564.74 59.402 565.34 59.102 565.44 58.802 C 565.54 58.402 565.64 58.002 565.74 57.502 C 565.84 56.402 565.94 55.302 566.04 54.102 A 291.006 291.006 0 0 1 566.087 52.811 C 566.128 51.73 566.169 50.641 566.178 49.552 A 52.374 52.374 0 0 0 566.18 49.123 A 31.199 31.199 0 0 0 565.94 45.002 C 565.74 43.902 565.74 42.802 565.74 41.702 C 565.64 40.902 565.24 40.402 564.34 40.402 A 16.693 16.693 0 0 0 564.056 40.403 C 563.784 40.408 563.54 40.427 563.24 40.502 C 561.94 40.602 560.64 40.802 559.34 41.002 C 554.24 41.602 549.24 42.302 544.14 42.902 A 7.43 7.43 0 0 0 543.601 42.991 C 542.592 43.203 542.454 43.591 542.54 44.802 C 542.69 46.402 542.765 48.002 542.765 49.614 C 542.765 51.227 542.69 52.852 542.54 54.502 Z
			M 553.74 9.102 L 551.94 6.402 A 2.318 2.318 0 0 0 551.636 6.05 C 551.214 5.657 550.729 5.584 550.184 5.878 A 2.011 2.011 0 0 0 550.14 5.902 A 6.743 6.743 0 0 0 549.727 6.127 A 12.298 12.298 0 0 0 549.14 6.502 C 548.14 7.302 547.04 8.102 546.04 8.902 C 541.94 12.002 537.94 15.102 533.84 18.202 A 9.509 9.509 0 0 0 533.553 18.425 C 532.646 19.161 532.71 19.507 533.44 20.602 C 535.34 23.302 536.84 26.102 538.24 29.002 C 538.415 29.264 538.59 29.603 538.765 29.885 A 4.346 4.346 0 0 0 538.84 30.002 A 0.961 0.961 0 0 0 539.016 30.254 C 539.208 30.447 539.469 30.502 539.84 30.502 A 0.888 0.888 0 0 1 540.017 30.44 C 540.155 30.404 540.309 30.385 540.44 30.342 A 0.728 0.728 0 0 0 540.54 30.302 C 542.84 29.302 545.24 28.302 547.64 27.302 C 550.44 26.102 553.24 24.902 556.14 23.802 C 557.223 23.31 558.209 22.914 559.289 22.425 A 44.187 44.187 0 0 0 559.34 22.402 A 1.657 1.657 0 0 0 559.832 22.141 C 560.141 21.901 560.309 21.578 560.24 21.302 A 6.352 6.352 0 0 0 559.913 20.257 A 3.458 3.458 0 0 0 559.84 20.102 C 559.44 19.002 558.94 18.002 558.44 17.002 C 556.94 14.302 555.64 11.602 553.74 9.102 Z
		" />

		<path fill="#929497" d="
			M 91.34 52.902 L 53.24 52.902 C 47.74 52.902 43.24 57.402 43.24 62.902 L 43.24 90.102 C 43.24 95.502 47.74 100.102 53.24 100.102 L 91.34 100.102 C 96.84 100.102 101.34 95.502 101.34 90.102 L 101.34 62.902 C 101.34 57.402 96.84 52.902 91.34 52.902 Z M 91.04 91.902 L 53.64 91.902 A 2.066 2.066 0 0 1 52.245 91.38 A 1.837 1.837 0 0 1 51.64 90.002 L 51.64 63.002 C 51.64 61.902 52.54 61.002 53.64 61.002 L 91.04 61.002 C 92.04 61.002 92.94 61.902 92.94 63.002 L 92.94 90.002 A 1.874 1.874 0 0 1 92.483 91.24 A 1.917 1.917 0 0 1 91.04 91.902 Z
		" />
	</g>
</svg>
