<?xml version="1.0" encoding="utf8"?>

<!--
	https://www.deviantart.com/maxigamer/art/FONT-New-Fontendo-23DSi-Lite-XL-DOWNLOAD-ZIP-552834059
	https://danmarshall.github.io/google-font-to-svg-path/
-->
<svg xmlns="http://www.w3.org/2000/svg" viewBox="-1,-1 300,62.1272085">
	<g stroke="none" fill-rule="evenodd">
		<path fill="#221E1F" d="
			M 48.0907 0.0011 L 28.031 0.0011 C 25.1352 0.0011 22.7659 2.3703 22.7659 5.2661 L 22.7659 19.5869 C 22.7659 22.4827 25.1352 24.8519 28.031 24.8519 L 48.0907 24.8519 C 50.9864 24.8519 53.3557 22.4827 53.3557 19.5869 L 53.3557 5.2661 C 53.3557 2.3703 50.9864 0.0011 48.0907 0.0011 Z
			M 47.9327 20.5873 L 28.2416 20.5873 C 27.6624 20.5873 27.1886 20.1134 27.1886 19.5343 L 27.1886 5.3187 C 27.1886 4.7396 27.6624 4.2657 28.2416 4.2657 L 47.9327 4.2657 C 48.4592 4.2657 48.9331 4.7396 48.9331 5.3187 L 48.9331 19.5343 A 1.0756 1.0756 90 0 1 48.525 20.3735 A 0.9577 0.9577 90 0 1 47.9327 20.5873 Z 

			M 90.2108 0.0011 L 58.6207 0.0011 L 58.6207 52.6512 L 90.2108 52.6512 C 98.5295 52.6512 107.9539 51.2297 112.9557 48.9657 A 35.015 35.015 90 0 0 119.6044 45.0859 C 125.7376 40.4706 128.3996 34.6949 128.9892 28.9192 A 25.5243 25.5243 90 0 0 129.1193 26.3261 A 25.0931 25.0931 90 0 0 128.9261 23.1919 C 128.2111 17.5146 125.4359 11.8379 119.2558 7.34 A 34.9792 34.9792 90 0 0 112.9557 3.7392 A 28.1289 28.1289 90 0 0 109.0022 2.3477 C 103.7977 0.8898 96.671 0.0011 90.2108 0.0011 Z 
			M 85.8408 45.3855 L 75.732 45.3855 L 75.732 7.1088 L 85.8408 7.1088 C 101.0036 7.1088 110.6965 13.5811 111.1493 25.449 A 23.0166 23.0166 90 0 1 111.1656 26.3261 A 17.75 17.75 90 0 1 108.4373 36.227 C 104.9871 41.5068 98.42 44.5752 89.6322 45.2455 A 49.8829 49.8829 90 0 1 85.8408 45.3855 Z 

			M 131.7518 42.2265 L 131.7518 51.0191 C 137.7987 51.9789 143.3201 52.5449 150.8285 52.6375 A 181.9274 181.9274 90 0 0 153.0751 52.6512 A 87.8889 87.8889 90 0 0 162.8512 52.1489 C 177.1399 50.5431 183.5685 45.2265 183.6122 38.2777 A 11.0465 11.0465 90 0 0 178.5557 28.9976 C 175.0813 26.3909 169.8837 24.2338 163.174 21.8251 A 292.1306 292.1306 90 0 0 162.6575 21.6403 A 976.7387 976.7387 90 0 1 159.6906 20.5731 C 154.0449 18.5271 150.2004 16.9718 148.4946 14.9242 A 4.0193 4.0193 90 0 1 147.4942 12.2685 C 147.4942 9.8108 150.3363 7.3963 157.0102 6.9272 A 34.7923 34.7923 90 0 1 159.4458 6.8456 C 165.8428 6.8456 170.3839 8.1055 174.9255 9.1417 A 76.7382 76.7382 90 0 0 178.0313 9.794 L 177.9787 1.6859 C 172.5894 0.706 169.5251 0.0906 161.744 0.01 A 175.9495 175.9495 90 0 0 159.9196 0.0011 C 142.9136 0.0011 131.8045 5.1081 131.8045 13.6901 C 131.8045 21.2154 139.4845 24.9441 150.3552 29.0876 A 461.5457 461.5457 90 0 0 153.6543 30.3276 A 157.4024 157.4024 90 0 1 156.2452 31.2863 C 162.8575 33.8067 165.7059 35.5668 166.2829 38.0045 A 4.3668 4.3668 90 0 1 166.3956 39.0148 A 5.1602 5.1602 90 0 1 164.1669 43.2827 C 162.2621 44.7053 159.0699 45.5961 154.3387 45.5961 A 76.1016 76.1016 90 0 1 149.4344 45.4276 C 143.9261 45.0691 138.1283 44.1688 134.1263 43.022 A 25.0567 25.0567 90 0 1 131.7518 42.2265 Z 

			M 204.6976 0.0026 L 186.2605 0.0026 L 186.2605 24.8425 L 204.6976 24.8425 A 10.2441 10.2441 90 0 0 208.689 24.079 A 8.9174 8.9174 90 0 0 212.3561 21.2222 C 213.9487 19.142 214.8233 16.3194 214.9238 13.0499 A 20.851 20.851 90 0 0 214.9333 12.4118 C 214.9333 8.871 214.0514 5.8347 212.3561 3.6423 A 9.1053 9.1053 90 0 0 205.4389 0.0258 A 11.7531 11.7531 90 0 0 204.6976 0.0026 Z 
			M 204.826 20.5588 L 190.6916 20.5588 L 190.6916 4.2647 L 204.826 4.2647 C 209.235 4.2647 210.8081 8.6715 210.8081 12.4118 A 13.2947 13.2947 90 0 1 210.7239 13.9091 C 210.3459 17.234 208.6558 20.5588 204.826 20.5588 Z 

			M 240.2112 0.0011 L 225.4165 0.0011 C 222.5207 0.0011 220.1514 2.3703 220.1514 5.2661 L 220.1514 24.8519 L 224.5741 24.8519 L 224.5741 14.5852 L 241.0536 14.5852 L 241.0536 24.8519 L 245.4762 24.8519 L 245.4762 5.2661 C 245.4762 2.3703 243.1069 0.0011 240.2112 0.0011 Z 
			M 241.0536 10.2152 L 224.5741 10.2152 L 224.5741 7.7406 A 3.4381 3.4381 90 0 1 226.8643 4.6111 A 4.2199 4.2199 90 0 1 228.4175 4.3184 L 237.2101 4.3184 A 4.1167 4.1167 90 0 1 239.7189 5.1508 A 3.2717 3.2717 90 0 1 241.0536 7.7406 L 241.0536 10.2152 Z 

			M 265.3937 13.2957 L 275.3125 3.2564 L 275.3125 0.0011 L 272.0477 0.0053 L 263.1408 9.0406 L 254.0234 0.0053 L 250.7586 0.0011 L 250.7586 3.2564 L 260.7963 13.181 L 260.7963 24.8146 L 265.3937 24.8146 L 265.3937 13.2957 Z
		" />

		<path fill="#6D6E70" d="
			M 5.9179 39.8572 L 4.0225 40.647 A 3.4981 3.4981 90 0 0 4.0177 40.6496 C 3.8877 40.7144 3.7777 40.7797 3.6755 40.8323 A 1.2989 1.2989 90 0 1 3.496 40.9102 A 1.2083 1.2083 90 0 0 3.3201 41.0419 C 3.1064 41.2372 3.06 41.4589 3.1264 41.7053 A 1.1488 1.1488 90 0 0 3.1801 41.8579 C 3.4433 42.3844 3.7592 42.9109 3.9698 43.4374 A 26.9048 26.9048 90 0 0 5.9152 46.9645 A 219.2459 219.2459 90 0 1 6.3391 47.6495 A 20.8553 20.8553 90 0 0 6.8461 48.3666 A 46.6902 46.6902 90 0 1 7.3921 49.1237 A 1.6695 1.6695 90 0 0 7.5048 49.2716 C 7.5295 49.3011 7.5558 49.3311 7.5832 49.3606 A 7.7133 7.7133 90 0 0 7.8133 49.5975 A 0.3201 0.3201 90 0 0 8.0028 49.6854 C 8.165 49.7065 8.3703 49.6365 8.5504 49.4922 A 29.2814 29.2814 90 0 0 9.6687 48.663 A 134.3706 134.3706 90 0 0 10.0246 48.3866 C 11.3408 47.3862 12.6045 46.3859 13.8681 45.4382 C 14.9737 44.5958 16.0267 43.806 17.1324 42.9636 A 0.4175 0.4175 90 0 0 17.2603 42.8562 C 17.3008 42.8093 17.3403 42.7562 17.3935 42.7025 A 0.8972 0.8972 90 0 1 17.3956 42.7003 C 17.4872 42.5635 17.5388 42.3866 17.4825 42.2049 A 0.557 0.557 90 0 0 17.4483 42.1212 C 17.343 41.9632 17.2377 41.8053 17.1324 41.5947 C 16.132 40.2258 15.2896 38.7516 14.5525 37.2247 A 5.6783 5.6783 90 0 0 14.4909 37.0857 C 14.234 36.5276 14.0576 36.4634 13.489 36.6898 A 6.1659 6.1659 90 0 0 13.3416 36.7509 C 10.867 37.8039 8.3924 38.8042 5.9179 39.8572 Z 
			M 12.3939 29.2746 L 12.3939 28.6954 A 46.6586 46.6586 90 0 1 12.2943 25.8749 A 24.4518 24.4518 90 0 1 12.3939 23.5883 A 3.6866 3.6866 90 0 0 12.4107 23.4541 C 12.4755 22.8439 12.2986 22.6928 11.5962 22.5938 A 6.496 6.496 90 0 0 11.5514 22.588 C 8.9189 22.2721 6.2338 21.9035 3.6013 21.5876 A 55.1395 55.1395 90 0 0 2.5746 21.436 A 18.1175 18.1175 90 0 0 1.5479 21.3244 C 1.3373 21.2717 1.1267 21.2717 0.9161 21.2717 A 0.7934 0.7934 90 0 0 0.6013 21.3317 C 0.4117 21.4134 0.2864 21.5745 0.2459 21.7945 A 0.8951 0.8951 90 0 0 0.2317 21.9562 C 0.179 22.5353 0.179 23.1145 0.1264 23.6936 A 16.4263 16.4263 90 0 0 0.0005 25.8633 A 27.575 27.575 90 0 0 0.0016 26.0892 C 0.0063 26.6626 0.0279 27.2359 0.049 27.8051 A 153.2152 153.2152 90 0 1 0.0737 28.4848 A 8.2161 8.2161 90 0 0 0.1332 29.3993 C 0.1658 29.6958 0.2053 29.9853 0.2317 30.2749 C 0.2317 30.5382 0.2843 30.7488 0.3896 30.9594 A 0.1685 0.1685 90 0 0 0.4449 31.0741 C 0.5507 31.1831 0.7977 31.2621 1.0741 31.2226 C 1.6532 31.17 2.285 31.0647 2.8642 31.012 C 4.4963 30.8014 6.1285 30.5908 7.708 30.3802 A 63.6219 63.6219 90 0 1 9.7087 30.0969 A 273.941 273.941 90 0 1 11.7094 29.8537 C 11.8673 29.8537 11.9727 29.8011 12.078 29.7484 C 12.2833 29.6968 12.3886 29.5457 12.3939 29.294 A 0.9577 0.9577 90 0 0 12.3939 29.2746 Z 
			M 8.9189 3.4233 L 8.4451 3.1074 C 8.0955 2.9326 7.818 2.9753 7.6137 3.2064 A 0.9798 0.9798 90 0 0 7.4974 3.3707 A 23.4772 23.4772 90 0 1 6.5018 4.7864 A 13.5232 13.5232 90 0 1 6.497 4.7922 C 5.5493 6.1085 4.8122 7.53 4.0751 8.9516 C 3.8119 9.4781 3.5486 10.0046 3.2854 10.5837 L 3.1274 11.2155 A 0.2775 0.2775 90 0 0 3.1195 11.2829 C 3.1195 11.3782 3.1653 11.4798 3.2396 11.5693 A 0.7903 0.7903 90 0 0 3.5486 11.7947 C 4.1278 12.0579 4.7069 12.2685 5.2861 12.5318 A 144.8412 144.8412 90 0 1 7.5237 13.4332 A 175.8574 175.8574 90 0 1 9.7613 14.3746 C 11.0249 14.9011 12.2359 15.4276 13.4995 15.9541 C 13.6048 16.0067 13.7101 16.0067 13.8681 16.0594 A 0.7439 0.7439 90 0 0 14.065 16.0367 C 14.1803 16.0051 14.2724 15.9351 14.3419 15.7961 C 14.434 15.6576 14.5262 15.4792 14.6183 15.3312 A 2.2882 2.2882 90 0 1 14.6578 15.2696 C 15.3949 13.7427 16.2373 12.2685 17.185 10.847 C 17.6231 10.2631 17.6115 10.0836 17.1081 9.6855 A 6.6123 6.6123 90 0 0 16.9744 9.5834 A 501.3055 501.3055 90 0 0 14.8547 7.9512 C 13.4353 6.863 12.0079 5.7752 10.6037 4.6869 C 10.0246 4.2657 9.4981 3.8445 8.9189 3.4233 Z 

			M 290.2288 49.5975 L 290.7027 49.1237 A 55.1405 55.1405 90 0 0 291.2229 48.3666 A 137.5828 137.5828 90 0 0 291.703 47.6495 A 219.2459 219.2459 90 0 1 292.1274 46.9645 A 26.9048 26.9048 90 0 0 294.0723 43.4374 L 294.862 41.8579 C 295.0727 41.4894 294.9673 41.1735 294.5988 40.9102 C 294.3882 40.8576 294.2302 40.7523 294.0723 40.647 C 293.4405 40.3837 292.8087 40.1205 292.1242 39.8572 A 266.5431 266.5431 90 0 0 288.4587 38.3041 A 560.757 560.757 90 0 1 284.7532 36.7509 A 4.9686 4.9686 90 0 0 284.5621 36.673 C 283.9766 36.4502 283.7766 36.5555 283.4896 37.2247 C 282.8052 38.7516 281.9101 40.2258 280.9624 41.5947 C 280.8834 41.7526 280.8045 41.8811 280.7255 42.0017 A 15.0227 15.0227 90 0 1 280.6465 42.1212 C 280.5496 42.3155 280.5423 42.5098 280.6655 42.6624 A 0.476 0.476 90 0 0 280.6992 42.7003 A 0.6034 0.6034 90 0 0 280.8155 42.8562 A 0.5965 0.5965 90 0 0 280.9624 42.9636 C 282.0154 43.806 283.1211 44.5958 284.1741 45.4382 C 285.4903 46.3859 286.7539 47.3862 288.0175 48.3866 A 29.2814 29.2814 90 0 1 289.1358 49.2158 A 134.3706 134.3706 90 0 1 289.4917 49.4922 C 289.7397 49.6902 290.0809 49.7486 290.2078 49.6228 A 0.1637 0.1637 90 0 0 290.2288 49.5975 Z 
			M 285.6483 28.6954 L 285.6483 29.2746 A 0.7408 0.7408 90 0 0 285.6672 29.4472 C 285.7041 29.6026 285.7978 29.7015 285.9478 29.7442 A 0.5386 0.5386 90 0 0 285.9642 29.7484 A 2.5004 2.5004 90 0 1 285.9679 29.7495 C 286.1237 29.8016 286.2285 29.8537 286.3327 29.8537 C 287.7016 30.0117 289.0179 30.1696 290.3341 30.3802 C 291.9663 30.5908 293.5984 30.8014 295.178 31.012 C 295.8098 31.0647 296.3889 31.17 297.0207 31.2226 C 297.3366 31.2753 297.6525 31.1173 297.7052 30.9594 C 297.7578 30.7488 297.8105 30.5382 297.8631 30.2749 C 297.9158 29.6958 297.9684 29.1166 298.0211 28.4848 A 153.2152 153.2152 90 0 1 298.0458 27.8051 C 298.0674 27.2359 298.089 26.6626 298.0937 26.0892 A 27.575 27.575 90 0 0 298.0948 25.8633 A 16.4263 16.4263 90 0 0 297.9684 23.6936 C 297.8631 23.1145 297.8631 22.5353 297.8631 21.9562 C 297.8105 21.535 297.5999 21.2717 297.126 21.2717 A 8.7889 8.7889 90 0 0 296.9765 21.2723 C 296.8333 21.2749 296.7048 21.2849 296.5469 21.3244 C 295.8624 21.377 295.178 21.4823 294.4935 21.5876 C 291.8083 21.9035 289.1758 22.2721 286.4907 22.588 A 3.9119 3.9119 90 0 0 286.2069 22.6348 C 285.6756 22.7465 285.603 22.9507 285.6483 23.5883 C 285.7272 24.4307 285.7667 25.2731 285.7667 26.1219 C 285.7667 26.9711 285.7272 27.8267 285.6483 28.6954 Z 
			M 291.5451 4.7922 L 290.5974 3.3707 A 1.2204 1.2204 90 0 0 290.4373 3.1853 C 290.2151 2.9784 289.9598 2.94 289.6728 3.0948 A 1.0588 1.0588 90 0 0 289.6497 3.1074 A 3.5502 3.5502 90 0 0 289.4322 3.2259 A 6.4749 6.4749 90 0 0 289.1232 3.4233 C 288.5967 3.8445 288.0175 4.2657 287.491 4.6869 C 285.3324 6.3191 283.2264 7.9512 281.0677 9.5834 A 5.0065 5.0065 90 0 0 280.9166 9.7008 C 280.4391 10.0883 280.4728 10.2705 280.8571 10.847 C 281.8575 12.2685 282.6472 13.7427 283.3843 15.2696 C 283.4764 15.4075 283.5686 15.586 283.6607 15.7345 A 2.2882 2.2882 90 0 0 283.7002 15.7961 A 0.506 0.506 90 0 0 283.7929 15.9288 C 283.894 16.0304 284.0314 16.0594 284.2267 16.0594 A 0.4675 0.4675 90 0 1 284.3199 16.0267 C 284.3926 16.0078 284.4736 15.9978 284.5426 15.9751 A 0.3833 0.3833 90 0 0 284.5953 15.9541 C 285.8062 15.4276 287.0698 14.9011 288.3334 14.3746 C 289.8076 13.7427 291.2818 13.1109 292.8087 12.5318 C 293.3789 12.2728 293.898 12.0643 294.4666 11.8068 A 23.2645 23.2645 90 0 0 294.4935 11.7947 A 0.8724 0.8724 90 0 0 294.7525 11.6573 C 294.9152 11.5309 295.0037 11.3609 294.9673 11.2155 A 3.3443 3.3443 90 0 0 294.7952 10.6653 A 1.8206 1.8206 90 0 0 294.7567 10.5837 C 294.5461 10.0046 294.2829 9.4781 294.0196 8.9516 C 293.2299 7.53 292.5454 6.1085 291.5451 4.7922 Z
		" />

		<path fill="#929497" d="
			M 48.0907 27.853 L 28.031 27.853 C 25.1352 27.853 22.7659 30.2223 22.7659 33.118 L 22.7659 47.4389 C 22.7659 50.282 25.1352 52.7039 28.031 52.7039 L 48.0907 52.7039 C 50.9864 52.7039 53.3557 50.282 53.3557 47.4389 L 53.3557 33.118 C 53.3557 30.2223 50.9864 27.853 48.0907 27.853 Z 
			M 47.9327 48.3866 L 28.2416 48.3866 A 1.0878 1.0878 90 0 1 27.5071 48.1117 A 0.9672 0.9672 90 0 1 27.1886 47.3862 L 27.1886 33.1707 C 27.1886 32.5915 27.6624 32.1177 28.2416 32.1177 L 47.9327 32.1177 C 48.4592 32.1177 48.9331 32.5915 48.9331 33.1707 L 48.9331 47.3862 A 0.9867 0.9867 90 0 1 48.6925 48.038 A 1.0093 1.0093 90 0 1 47.9327 48.3866 Z
		" />
	</g>
</svg>
